[Header]
FileType HTR
DataType HTRS
FileVersion 1
NumSegments 64
NumFrames 3
DataFrameRate 24
EulerRotationOrder ZYX
CalibrationUnits mm
RotationUnits Degrees
GlobalAxisofGravity Y
BoneLengthAxis Y
ScaleFactor 1.0
[SegmentNames&Hierarchy]
Hips	GLOBAL
Spine	Hips
Spine1	Spine
Spine2	Spine1
Neck	Spine2
Head	Neck
LeftEye	Head
RightEye	Head
LeftShoulder	Spine2
LeftArm	LeftShoulder
LeftForeArm	LeftArm
LeftHand	LeftForeArm
LeftHandThumb1	LeftHand
LeftHandThumb2	LeftHandThumb1
LeftHandThumb3	LeftHandThumb2
LeftHandThumb4	LeftHandThumb3
LeftHandIndex1	LeftHand
LeftHandIndex2	LeftHandIndex1
LeftHandIndex3	LeftHandIndex2
LeftHandIndex4	LeftHandIndex3
LeftHandMiddle1	LeftHand
LeftHandMiddle2	LeftHandMiddle1
LeftHandMiddle3	LeftHandMiddle2
LeftHandMiddle4	LeftHandMiddle3
LeftHandRing1	LeftHand
LeftHandRing2	LeftHandRing1
LeftHandRing3	LeftHandRing2
LeftHandRing4	LeftHandRing3
LeftHandPinky1	LeftHand
LeftHandPinky2	LeftHandPinky1
LeftHandPinky3	LeftHandPinky2
LeftHandPinky4	LeftHandPinky3
RightShoulder	Spine2
RightArm	RightShoulder
RightForeArm	RightArm
RightHand	RightForeArm
RightHandPinky1	RightHand
RightHandPinky2	RightHandPinky1
RightHandPinky3	RightHandPinky2
RightHandPinky4	RightHandPinky3
RightHandRing1	RightHand
RightHandRing2	RightHandRing1
RightHandRing3	RightHandRing2
RightHandRing4	RightHandRing3
RightHandMiddle1	RightHand
RightHandMiddle2	RightHandMiddle1
RightHandMiddle3	RightHandMiddle2
RightHandMiddle4	RightHandMiddle3
RightHandIndex1	RightHand
RightHandIndex2	RightHandIndex1
RightHandIndex3	RightHandIndex2
RightHandIndex4	RightHandIndex3
RightHandThumb1	RightHand
RightHandThumb2	RightHandThumb1
RightHandThumb3	RightHandThumb2
RightHandThumb4	RightHandThumb3
LeftUpLeg	Hips
LeftLeg	LeftUpLeg
LeftFoot	LeftLeg
LeftToeBase	LeftFoot
RightUpLeg	Hips
RightLeg	RightUpLeg
RightFoot	RightLeg
RightToeBase	RightFoot
[BasePosition]
Hips	0	0	0	0	0	0	1
Spine	0	0	0	0	0	0	1
Spine1	0	0	0	0	0	0	1
Spine2	0	0	0	0	0	0	1
Neck	0	0	0	0	0	0	1
Head	0	0	0	0	0	0	1
LeftEye	0	0	0	0	0	0	1
RightEye	0	0	0	0	0	0	1
LeftShoulder	0	0	0	0	0	0	1
LeftArm	0	0	0	0	0	0	1
LeftForeArm	0	0	0	0	0	0	1
LeftHand	0	0	0	0	0	0	1
LeftHandThumb1	0	0	0	0	0	0	1
LeftHandThumb2	0	0	0	0	0	0	1
LeftHandThumb3	0	0	0	0	0	0	1
LeftHandThumb4	0	0	0	0	0	0	1
LeftHandIndex1	0	0	0	0	0	0	1
LeftHandIndex2	0	0	0	0	0	0	1
LeftHandIndex3	0	0	0	0	0	0	1
LeftHandIndex4	0	0	0	0	0	0	1
LeftHandMiddle1	0	0	0	0	0	0	1
LeftHandMiddle2	0	0	0	0	0	0	1
LeftHandMiddle3	0	0	0	0	0	0	1
LeftHandMiddle4	0	0	0	0	0	0	1
LeftHandRing1	0	0	0	0	0	0	1
LeftHandRing2	0	0	0	0	0	0	1
LeftHandRing3	0	0	0	0	0	0	1
LeftHandRing4	0	0	0	0	0	0	1
LeftHandPinky1	0	0	0	0	0	0	1
LeftHandPinky2	0	0	0	0	0	0	1
LeftHandPinky3	0	0	0	0	0	0	1
LeftHandPinky4	0	0	0	0	0	0	1
RightShoulder	0	0	0	0	0	0	1
RightArm	0	0	0	0	0	0	1
RightForeArm	0	0	0	0	0	0	1
RightHand	0	0	0	0	0	0	1
RightHandPinky1	0	0	0	0	0	0	1
RightHandPinky2	0	0	0	0	0	0	1
RightHandPinky3	0	0	0	0	0	0	1
RightHandPinky4	0	0	0	0	0	0	1
RightHandRing1	0	0	0	0	0	0	1
RightHandRing2	0	0	0	0	0	0	1
RightHandRing3	0	0	0	0	0	0	1
RightHandRing4	0	0	0	0	0	0	1
RightHandMiddle1	0	0	0	0	0	0	1
RightHandMiddle2	0	0	0	0	0	0	1
RightHandMiddle3	0	0	0	0	0	0	1
RightHandMiddle4	0	0	0	0	0	0	1
RightHandIndex1	0	0	0	0	0	0	1
RightHandIndex2	0	0	0	0	0	0	1
RightHandIndex3	0	0	0	0	0	0	1
RightHandIndex4	0	0	0	0	0	0	1
RightHandThumb1	0	0	0	0	0	0	1
RightHandThumb2	0	0	0	0	0	0	1
RightHandThumb3	0	0	0	0	0	0	1
RightHandThumb4	0	0	0	0	0	0	1
LeftUpLeg	0	0	0	0	0	0	1
LeftLeg	0	0	0	0	0	0	1
LeftFoot	0	0	0	0	0	0	1
LeftToeBase	0	0	0	0	0	0	1
RightUpLeg	0	0	0	0	0	0	1
RightLeg	0	0	0	0	0	0	1
RightFoot	0	0	0	0	0	0	1
RightToeBase	0	0	0	0	0	0	1
[Hips]
1	11.90656471	907.8704834	5.880237579	-3.070082188	72.44567108	-22.85243797	1.0
2	187.7440643	904.9532471	5.099050999	-2.447871685	72.69969177	-22.08627892	1.0
3	374.6276245	921.1243896	0.7888132334	12.2036829	73.73310089	-7.222916603	1.0
[Spine]
1	0	101.8159943	1.315000057	8.518261909	-8.236746788	6.164657116	1.0
2	0	101.8159943	1.315000057	8.404657364	-5.973799229	5.268613815	1.0
3	0	101.8159943	1.315000057	7.36602354	-3.78323555	1.778796792	1.0
[Spine1]
1	0	100.8349991	-10.00800037	3.250165939	-3.416394949	2.270710945	1.0
2	0	100.8349991	-10.00800037	3.221492767	-2.457081318	1.832613707	1.0
3	0	100.8349991	-10.00800037	2.951483011	-1.584409595	0.8221080303	1.0
[Spine2]
1	0	91	-13.73399925	3.22923851	-3.401180983	2.321383715	1.0
2	0	91	-13.73399925	3.20386219	-2.454160452	1.866503954	1.0
3	0	91	-13.73399925	2.936323404	-1.601208329	0.8372154832	1.0
[Neck]
1	0	166.7169952	-25.16200066	-0.86659199	-6.886356831	-2.175759077	1.0
2	0	166.7169952	-25.16200066	-0.6999974847	-7.801640987	-1.999557018	1.0
3	0	166.7169952	-25.16200066	-0.6534054875	-8.891763687	-1.286945581	1.0
[Head]
1	0	96.17900085	16.84999847	-36.64997101	-35.72484589	36.32310486	1.0
2	0	96.17900085	16.84999847	-36.39056396	-39.30593109	36.71321869	1.0
3	0	96.17900085	16.84999847	-36.13077545	-43.7349968	39.46872711	1.0
[LeftEye]
1	30.6760006	64.09500122	92.83599854	0	0	0	1.0
2	30.6760006	64.09500122	92.83599854	0	0	0	1.0
3	30.6760006	64.09500122	92.83599854	0	0	0	1.0
[RightEye]
1	-30.6760006	64.09500122	92.83499908	0	0	0	1.0
2	-30.6760006	64.09500122	92.83499908	0	0	0	1.0
3	-30.6760006	64.09500122	92.83499908	0	0	0	1.0
[LeftShoulder]
1	45.70400238	109.4599991	-26.28000069	2.901865244	-11.63390827	-12.05869865	1.0
2	45.70400238	109.4599991	-26.28000069	2.767274857	-11.29237938	-11.52086163	1.0
3	45.70400238	109.4599991	-26.28000069	2.665055752	-11.34921932	-10.69964886	1.0
[LeftArm]
1	105.923996	-5.24600029	-22.32099915	3.469138622	25.05104065	-56.95519638	1.0
2	105.923996	-5.24600029	-22.32099915	-0.76030761	23.47500229	-64.71936035	1.0
3	105.923996	-5.24600029	-22.32099915	-6.538859367	27.57440948	-68.36308289	1.0
[LeftForeArm]
1	278.414978	-0.0009999999311	0	4.643115972e-05	-88.10869598	-0.0003955538268	1.0
2	278.414978	-0.0009999999311	0	1.375464217e-05	-44.70955658	-0.0002091262868	1.0
3	278.414978	-0.0009999999311	0	3.42114763e-05	-22.97606087	-0.0002206643403	1.0
[LeftHand]
1	283.2879944	0	0	43.1476326	-4.054666519	32.76636887	1.0
2	283.2879944	0	0	47.57478714	-20.40283775	16.32818794	1.0
3	283.2879944	0	0	55.32581329	-30.97113228	2.533375502	1.0
[LeftHandThumb1]
1	24.6609993	-15.75	26.8239994	-5.302075386	-11.16394615	-7.000405312	1.0
2	24.6609993	-15.75	26.8239994	-5.306650639	-11.19006157	-7.012717724	1.0
3	24.6609993	-15.75	26.8239994	-5.508262157	-11.74728775	-7.137463093	1.0
[LeftHandThumb2]
1	32.29800034	-18.64699936	18.64699936	5.34449482	3.132200241	14.99419498	1.0
2	32.29800034	-18.64699936	18.64699936	5.340202332	3.107756853	14.98867226	1.0
3	32.29800034	-18.64699936	18.64699936	5.24717617	2.573815107	14.8684988	1.0
[LeftHandThumb3]
1	26.52600098	-15.31499958	15.31499958	-32.8004303	-29.39122772	24.29259491	1.0
2	26.52600098	-15.31499958	15.31499958	-32.80996323	-29.40729332	24.2983036	1.0
3	26.52600098	-15.31499958	15.31499958	-33.01926422	-29.75793457	24.4240303	1.0
[LeftHandThumb4]
1	19.54599953	-11.28499985	11.28499985	0	0	0	1.0
2	19.54599953	-11.28499985	11.28499985	0	0	0	1.0
3	19.54599953	-11.28499985	11.28499985	0	0	0	1.0
[LeftHandIndex1]
1	91.09299469	-5.170999527	22.60099792	-0.9016555548	-3.079656839	-18.88291931	1.0
2	91.09299469	-5.170999527	22.60099792	-0.8992448449	-3.077515125	-18.85777855	1.0
3	91.09299469	-5.170999527	22.60099792	-0.857262671	-3.100808859	-18.30773735	1.0
[LeftHandIndex2]
1	36.76399994	0	0	-0.02024523355	0.48607108	-4.77005434	1.0
2	36.76399994	0	0	-0.02002860233	0.4834452569	-4.744207859	1.0
3	36.76399994	0	0	-0.01554909721	0.426060468	-4.179973602	1.0
[LeftHandIndex3]
1	28.83100128	0	0	-0.1266261041	-1.209984183	11.94835281	1.0
2	28.83100128	0	0	-0.1271654218	-1.212524891	11.97383308	1.0
3	28.83100128	0	0	-0.139208734	-1.267977595	12.53025627	1.0
[LeftHandIndex4]
1	23.92700005	0	0	0	0	0	1.0
2	23.92700005	0	0	0	0	0	1.0
3	23.92700005	0	0	0	0	0	1.0
[LeftHandMiddle1]
1	95.33399963	0	0	-1.489984155	-0.9602560997	-25.31640434	1.0
2	95.33399963	0	0	-1.487592697	-0.957510829	-25.28649521	1.0
3	95.33399963	0	0	-1.434842467	-0.9779861569	-24.6332016	1.0
[LeftHandMiddle2]
1	36.98199844	0	0	-0.5675542951	2.511545897	-25.46373367	1.0
2	36.98199844	0	0	-0.5662318468	2.508764982	-25.43347549	1.0
3	36.98199844	0	0	-0.5375974178	2.447695971	-24.77121353	1.0
[LeftHandMiddle3]
1	29.50900078	0	0	-0.1971934289	-1.505253553	14.9260006	1.0
2	29.50900078	0	0	-0.1978163868	-1.507580042	14.94961929	1.0
3	29.50900078	0	0	-0.2116100788	-1.558316946	15.46535587	1.0
[LeftHandMiddle4]
1	28.3390007	0	0	0	0	0	1.0
2	28.3390007	0	0	0	0	0	1.0
3	28.3390007	0	0	0	0	0	1.0
[LeftHandRing1]
1	91.04499817	-0.4390000105	-18.65100098	-1.328216314	2.352846384	-23.06397247	1.0
2	91.04499817	-0.4390000105	-18.65100098	-1.325261354	2.352590322	-23.02603722	1.0
3	91.04499817	-0.4390000105	-18.65100098	-1.261199594	2.298309565	-22.19978714	1.0
[LeftHandRing2]
1	31.54000092	0	0	-1.414195776	3.808506966	-40.73067856	1.0
2	31.54000092	0	0	-1.411682844	3.805590391	-40.69272995	1.0
3	31.54000092	0	0	-1.357138276	3.741368294	-39.86407852	1.0
[LeftHandRing3]
1	29.37700081	0	0	-0.1242890731	-1.198882699	11.83707523	1.0
2	29.37700081	0	0	-0.1250787079	-1.202651262	11.87481689	1.0
3	29.37700081	0	0	-0.1429753602	-1.284801602	12.69933319	1.0
[LeftHandRing4]
1	26.47500038	0	0	0	0	0	1.0
2	26.47500038	0	0	0	0	0	1.0
3	26.47500038	0	0	0	0	0	1.0
[LeftHandPinky1]
1	80.77799988	-4.887000084	-38.06099701	-2.641813755	3.593384743	-25.44661331	1.0
2	80.77799988	-4.887000084	-38.06099701	-2.637136698	3.592438698	-25.39226341	1.0
3	80.77799988	-4.887000084	-38.06099701	-2.570140362	3.517449617	-24.20925903	1.0
[LeftHandPinky2]
1	36	0	0	-2.035085201	4.426810741	-49.36115265	1.0
2	36	0	0	-2.030900478	4.423223495	-49.30692673	1.0
3	36	0	0	-1.940393567	4.34399271	-48.12288284	1.0
[LeftHandPinky3]
1	21.14200211	0	0	-0.001252388582	-0.1209315434	1.185446382	1.0
2	21.14200211	0	0	-0.001370452344	-0.1264256388	1.239340425	1.0
3	21.14200211	0	0	-0.00520234881	-0.2464573681	2.416493177	1.0
[LeftHandPinky4]
1	19.75699997	0	0	0	0	0	1.0
2	19.75699997	0	0	0	0	0	1.0
3	19.75699997	0	0	0	0	0	1.0
[RightShoulder]
1	-45.70000076	109.4620056	-26.28000069	1.986369729	4.733217239	17.48246002	1.0
2	-45.70000076	109.4620056	-26.28000069	2.349347115	6.547472	16.92189789	1.0
3	-45.70000076	109.4620056	-26.28000069	2.068893194	6.403789997	14.0486412	1.0
[RightArm]
1	-105.9280014	-5.248000145	-22.32099915	8.521214485	-6.51907444	40.47579575	1.0
2	-105.9280014	-5.248000145	-22.32099915	12.5959692	6.401398659	35.41136932	1.0
3	-105.9280014	-5.248000145	-22.32099915	14.42518425	14.70272064	32.06955338	1.0
[RightForeArm]
1	-278.414978	0	0	-9.413298358e-06	62.62977219	-8.292380699e-06	1.0
2	-278.414978	0	0	1.317678107e-05	68.06743622	7.123445812e-06	1.0
3	-278.414978	0	0	5.316305396e-05	75.41140747	4.281201836e-05	1.0
[RightHand]
1	-283.2879944	0	0.0009999999311	29.40930367	2.900374174	19.49070168	1.0
2	-283.2879944	0	0.0009999999311	21.89634895	3.109620333	21.97199631	1.0
3	-283.2879944	0	0.0009999999311	15.54367447	3.106007814	25.09416771	1.0
[RightHandPinky1]
1	-80.76699829	-4.885000229	-38.06000137	-5.280701637	-3.617105722	71.23773956	1.0
2	-80.76699829	-4.885000229	-38.06000137	-4.966485023	-3.692285538	66.26789856	1.0
3	-80.76699829	-4.885000229	-38.06000137	-4.28527832	-3.830425024	55.65335083	1.0
[RightHandPinky2]
1	-36	0	0.0009999999311	-5.106812954	-4.606020927	95.92982483	1.0
2	-36	0	0.0009999999311	-4.705892086	-4.629905701	90.95346832	1.0
3	-36	0	0.0009999999311	-3.851802826	-4.564712048	80.32780457	1.0
[RightHandPinky3]
1	-21.14200211	0	0	-1.364789128	-3.284549475	45.11780167	1.0
2	-21.14200211	0	0	-1.084825277	-2.980113983	39.9978447	1.0
3	-21.14200211	0	0	-0.5879354477	-2.260037184	29.1607933	1.0
[RightHandPinky4]
1	-19.75699997	0	0	0	0	0	1.0
2	-19.75699997	0	0	0	0	0	1.0
3	-19.75699997	0	0	0	0	0	1.0
[RightHandRing1]
1	-91.03599548	-0.4390000105	-18.65100098	-4.171573639	-2.656709909	58.99272537	1.0
2	-91.03599548	-0.4390000105	-18.65100098	-3.831763268	-2.335127831	55.23284531	1.0
3	-91.03599548	-0.4390000105	-18.65100098	-3.114583731	-1.763851523	47.12457657	1.0
[RightHandRing2]
1	-31.54000092	0	0	-3.634644508	-4.522395134	77.56736755	1.0
2	-31.54000092	0	0	-3.337952852	-4.446835995	73.77440643	1.0
3	-31.54000092	0	0	-2.719442129	-4.21854353	65.60112762	1.0
[RightHandRing3]
1	-29.37700081	0	0	-0.4248248637	-1.939236999	24.71100044	1.0
2	-29.37700081	0	0	-0.2905205786	-1.615867376	20.3828373	1.0
3	-29.37700081	0	0	-0.09102140367	-0.914565146	11.36711979	1.0
[RightHandRing4]
1	-26.47500038	0	0	0	0	0	1.0
2	-26.47500038	0	0	0	0	0	1.0
3	-26.47500038	0	0	0	0	0	1.0
[RightHandMiddle1]
1	-95.32500458	0	0	-3.919971228	1.483598113	56.2491188	1.0
2	-95.32500458	0	0	-3.634489059	1.581455827	53.08222961	1.0
3	-95.32500458	0	0	-3.026112318	1.727133632	46.2010994	1.0
[RightHandMiddle2]
1	-36.98199844	0	0	-2.168195248	-3.922783852	57.84752274	1.0
2	-36.98199844	0	0	-1.95002389	-3.777195692	54.59914017	1.0
3	-36.98199844	0	0	-1.507141948	-3.420209646	47.55208969	1.0
[RightHandMiddle3]
1	-29.50900078	0	0	-0.1213395372	-1.056199431	13.13171196	1.0
2	-29.50900078	0	0	-0.05860641226	-0.7371701002	9.115510941	1.0
3	-29.50900078	0	0	-0.0006959851598	-0.08281755447	0.9975655675	1.0
[RightHandMiddle4]
1	-28.3390007	0	0.0009999999311	0	0	0	1.0
2	-28.3390007	0	0.0009999999311	0	0	0	1.0
3	-28.3390007	0	0.0009999999311	0	0	0	1.0
[RightHandIndex1]
1	-91.08300018	-5.167999744	22.60099792	-3.080061674	3.141960621	46.87804413	1.0
2	-91.08300018	-5.167999744	22.60099792	-2.823482037	3.180382252	44.04988098	1.0
3	-91.08300018	-5.167999744	22.60099792	-2.28331089	3.248725653	37.87749863	1.0
[RightHandIndex2]
1	-36.76399994	0	0	-0.8149200082	-2.625461102	34.48254776	1.0
2	-36.76399994	0	0	-0.6645241976	-2.392024755	31.04792595	1.0
3	-36.76399994	0	0	-0.3963575959	-1.876181483	23.85588074	1.0
[RightHandIndex3]
1	-28.83100128	0	0	-0.2083358616	-1.3747015	17.23458099	1.0
2	-28.83100128	0	0	-0.1338697523	-1.106525302	13.79648876	1.0
3	-28.83100128	0	0	-0.03102030419	-0.5356199145	6.628055573	1.0
[RightHandIndex4]
1	-23.92700005	0	0	0	0	0	1.0
2	-23.92700005	0	0	0	0	0	1.0
3	-23.92700005	0	0	0	0	0	1.0
[RightHandThumb1]
1	-24.64799881	-15.72700024	26.82600021	-0.8809099197	-1.914761066	2.94398284	1.0
2	-24.64799881	-15.72700024	26.82600021	-1.586480618	-0.07139389962	3.532074451	1.0
3	-24.64799881	-15.72700024	26.82600021	-2.98024559	3.768024683	4.691571712	1.0
[RightHandThumb2]
1	-32.29800034	-18.64699936	18.64699936	9.610544205	-19.2697506	-19.98568153	1.0
2	-32.29800034	-18.64699936	18.64699936	9.159441948	-17.51413536	-19.45378876	1.0
3	-32.29800034	-18.64699936	18.64699936	8.29100132	-13.8677702	-18.4121685	1.0
[RightHandThumb3]
1	-26.52600098	-15.31399918	15.31399918	-24.06882668	14.11678123	-20.984869	1.0
2	-26.52600098	-15.31399918	15.31399918	-24.62067413	15.32069492	-21.21572495	1.0
3	-26.52600098	-15.31399918	15.31399918	-25.79040718	17.80579376	-21.73687553	1.0
[RightHandThumb4]
1	-19.54599953	-11.28499985	11.28499985	0	0	0	1.0
2	-19.54599953	-11.28499985	11.28499985	0	0	0	1.0
3	-19.54599953	-11.28499985	11.28499985	0	0	0	1.0
[LeftUpLeg]
1	82.07800293	-67.51699829	-15.99599934	-39.29230881	23.22165489	-4.461201668	1.0
2	82.07800293	-67.51699829	-15.99599934	-59.34380341	15.07016182	-3.028451443	1.0
3	82.07800293	-67.51699829	-15.99599934	-73.01412201	8.196573257	-3.720753431	1.0
[LeftLeg]
1	0	-443.7049866	2.845999956	115.5298004	-0.8045886755	2.996896744	1.0
2	0	-443.7049866	2.845999956	115.8119965	-0.3865380287	1.831950068	1.0
3	0	-443.7049866	2.845999956	101.308609	1.191876411	-3.75356102	1.0
[LeftFoot]
1	0	-444.2789917	-29.8219986	-2.582726717	1.753507137	7.13528204	1.0
2	0	-444.2789917	-29.8219986	-9.223995209	1.238012314	4.649718761	1.0
3	0	-444.2789917	-29.8219986	-20.34805489	0.4393323362	-12.73138332	1.0
[LeftToeBase]
1	0	-87.28699493	107.1060028	-9.651363373	7.317841209e-06	-1.269477707e-05	1.0
2	0	-87.28699493	107.1060028	-9.300934792	1.519321086e-05	3.573595222e-06	1.0
3	0	-87.28699493	107.1060028	4.139381886	-1.688090379e-05	-9.81943117e-07	1.0
[RightUpLeg]
1	-82.07800293	-67.51699829	-15.99599934	-45.12119293	0.5364690423	10.8483448	1.0
2	-82.07800293	-67.51699829	-15.99599934	-30.54016876	-1.509772539	8.01295948	1.0
3	-82.07800293	-67.51699829	-15.99599934	-9.811244011	-6.917852402	0.6675276756	1.0
[RightLeg]
1	0	-443.7049866	2.861999989	54.22799301	2.550343275	8.90695858	1.0
2	0	-443.7049866	2.861999989	49.67324448	5.683130264	7.390910625	1.0
3	0	-443.7049866	2.861999989	29.31001091	9.550690651	1.72115159	1.0
[RightFoot]
1	0	-444.2770081	-29.83799934	-26.34826279	-2.282100201	-10.61788559	1.0
2	0	-444.2770081	-29.83799934	-36.66734695	-1.814688087	-7.013304234	1.0
3	0	-444.2770081	-29.83799934	-32.50782394	2.531124115	-2.296173573	1.0
[RightToeBase]
1	0	-87.28699493	107.1060028	-9.347789764	-2.996997409e-06	-1.692680485e-06	1.0
2	0	-87.28699493	107.1060028	-9.347789764	-9.712452993e-06	6.609210232e-06	1.0
3	0	-87.28699493	107.1060028	-14.20289516	1.330253053e-05	-4.933176569e-07	1.0
[EndOfFile]
